<svg xmlns="http://www.w3.org/2000/svg" viewBox="0 0 512 512">
  <defs>
    <linearGradient id="bgGrad" x1="0%" y1="0%" x2="100%" y2="100%">
      <stop offset="0%" style="stop-color:#4a7c59"/>
      <stop offset="100%" style="stop-color:#2d5a27"/>
    </linearGradient>
    <linearGradient id="furGrad" x1="0%" y1="0%" x2="0%" y2="100%">
      <stop offset="0%" style="stop-color:#d4a574"/>
      <stop offset="100%" style="stop-color:#b8865c"/>
    </linearGradient>
  </defs>
  <circle cx="256" cy="256" r="240" fill="url(#bgGrad)"/>
  <circle cx="256" cy="256" r="220" fill="#f7f3e9" opacity="0.1"/>
  <ellipse cx="256" cy="300" rx="85" ry="100" fill="url(#furGrad)"/>
  <ellipse cx="256" cy="200" rx="70" ry="65" fill="url(#furGrad)"/>
  <ellipse cx="200" cy="120" rx="25" ry="45" fill="#d4a574" transform="rotate(-20 200 120)"/>
  <ellipse cx="312" cy="120" rx="25" ry="45" fill="#d4a574" transform="rotate(20 312 120)"/>
  <ellipse cx="200" cy="115" rx="18" ry="35" fill="#f5d5b8" transform="rotate(-20 200 115)"/>
  <ellipse cx="312" cy="115" rx="18" ry="35" fill="#f5d5b8" transform="rotate(20 312 115)"/>
  <ellipse cx="220" cy="185" rx="18" ry="20" fill="#fff"/>
  <ellipse cx="292" cy="185" rx="18" ry="20" fill="#fff"/>
  <circle cx="223" cy="188" r="10" fill="#2c1810"/>
  <circle cx="295" cy="188" r="10" fill="#2c1810"/>
  <circle cx="226" cy="185" r="3" fill="#fff"/>
  <circle cx="298" cy="185" r="3" fill="#fff"/>
  <ellipse cx="256" cy="210" rx="12" ry="8" fill="#2c1810"/>
  <path d="M244 222 Q256 232 268 222" stroke="#2c1810" stroke-width="3" fill="none" stroke-linecap="round"/>
  <ellipse cx="235" cy="205" rx="12" ry="6" fill="#ffb6c1" opacity="0.6"/>
  <ellipse cx="277" cy="205" rx="12" ry="6" fill="#ffb6c1" opacity="0.6"/>
  <path d="M256 250 Q220 320 256 380 Q292 320 256 250" fill="url(#furGrad)"/>
  <path d="M180 350 Q120 380 100 450" stroke="#d4a574" stroke-width="35" fill="none" stroke-linecap="round"/>
  <path d="M332 350 Q392 380 412 450" stroke="#d4a574" stroke-width="35" fill="none" stroke-linecap="round"/>
  <circle cx="256" cy="165" rx="4" ry="3" fill="#2c1810"/>
  <ellipse cx="256" cy="165" rx="80" ry="3" fill="#2c1810" opacity="0.1"/>
  <path d="M50 256 Q30 200 60 150" stroke="#4a7c59" stroke-width="8" fill="none" opacity="0.3"/>
  <path d="M462 256 Q482 200 452 150" stroke="#4a7c59" stroke-width="8" fill="none" opacity="0.3"/>
</svg>
